<?xml version="1.0" standalone="no"?>
<!DOCTYPE svg PUBLIC "-//W3C//DTD SVG 20010904//EN"
 "http://www.w3.org/TR/2001/REC-SVG-20010904/DTD/svg10.dtd">
<svg version="1.0" xmlns="http://www.w3.org/2000/svg"
 width="555.000000pt" height="555.000000pt" viewBox="0 0 555.000000 555.000000"
 preserveAspectRatio="xMidYMid meet">
<metadata>
Created by potrace 1.14, written by Peter Selinger 2001-2017
</metadata>
<g transform="translate(0.000000,555.000000) scale(0.100000,-0.100000)"
fill="#000000" stroke="none">
<path d="M410 3120 c0 -5 14 -11 30 -15 17 -4 30 -11 30 -16 0 -5 6 -9 13 -9
16 -1 67 -46 67 -60 0 -5 4 -10 9 -10 5 0 16 -18 25 -40 25 -64 8 -178 -36
-230 -16 -19 -94 -80 -102 -80 -3 0 -21 -16 -40 -35 -35 -35 -53 -80 -51 -125
2 -29 15 -80 21 -80 2 0 17 14 32 30 31 35 50 41 142 46 72 4 94 20 84 61 -4
15 -2 23 6 23 8 0 11 11 8 30 -3 21 0 30 10 30 10 0 12 7 8 23 -4 19 0 25 24
34 30 11 31 19 11 67 -6 16 -14 50 -17 75 -2 25 -7 66 -10 91 -8 74 -71 150
-149 180 -37 14 -115 21 -115 10z"/>
<path d="M350 3093 c-8 -4 -20 -13 -27 -22 -16 -22 -73 -20 -96 2 -17 17 -21
17 -40 4 -13 -8 -21 -23 -19 -34 4 -27 -39 -61 -72 -58 -30 4 -66 -24 -62 -47
9 -40 19 -49 53 -46 43 3 89 -38 99 -87 5 -26 10 -32 29 -29 13 1 29 5 34 9 6
3 11 2 11 -3 0 -5 9 -12 21 -15 12 -3 18 -10 15 -16 -3 -5 1 -16 9 -25 10 -9
11 -17 5 -21 -6 -4 -8 -11 -5 -16 4 -5 -5 -14 -19 -20 -14 -7 -27 -18 -30 -25
-6 -17 3 -44 14 -44 15 0 1 -42 -20 -62 -23 -22 -24 -27 -7 -49 11 -15 42 -18
55 -4 12 12 11 43 -3 55 -17 14 -9 39 18 62 18 13 19 20 10 40 -12 28 0 68 21
68 9 0 18 11 22 24 8 33 53 49 96 34 28 -10 33 -9 50 12 23 29 23 45 -2 70
-25 25 -25 52 -1 74 28 26 10 65 -28 61 -30 -4 -72 30 -64 51 6 17 -23 64 -40
63 -6 0 -19 -3 -27 -6z m-30 -63 c0 -5 -10 -21 -22 -35 -37 -42 -93 -21 -68
26 8 14 21 19 50 19 22 0 40 -4 40 -10z m-107 -39 c7 -28 -8 -45 -42 -49 -39
-4 -50 18 -24 46 23 26 59 28 66 3z m143 -20 c-2 -14 -5 -31 -5 -37 -1 -18
-28 -24 -56 -14 -32 12 -31 25 2 59 35 35 65 31 59 -8z m94 -10 c0 -19 -30
-40 -57 -41 -20 0 -23 5 -23 35 0 44 24 60 57 36 12 -9 23 -22 23 -30z m-241
-48 c17 -18 17 -50 0 -67 -9 -10 -79 51 -79 69 0 19 62 17 79 -2z m269 -27 c0
-34 -43 -45 -69 -18 -17 19 -17 21 -1 35 38 33 70 25 70 -17z m-160 4 c2 -6 9
-16 16 -23 20 -20 8 -74 -18 -81 -38 -10 -45 -7 -63 32 -37 82 -19 105 21 26
16 -30 30 -53 33 -50 7 7 -20 66 -30 66 -5 0 -6 4 -2 9 3 5 1 12 -5 16 -5 3
-10 11 -10 16 0 12 54 3 58 -11z m97 -44 c16 -12 17 -18 8 -39 -15 -33 -89
-46 -78 -14 26 74 34 80 70 53z"/>
<path d="M924 2899 c-37 -11 -72 -46 -82 -85 -4 -16 -8 -78 -7 -139 l0 -110
52 -3 52 -3 -1 116 c-1 113 6 146 31 131 15 -10 14 -36 -2 -42 -8 -3 -14 -24
-16 -49 -2 -42 0 -45 24 -45 87 0 134 86 93 169 -26 54 -82 77 -144 60z"/>
<path d="M2763 2900 c-18 -4 -33 -5 -33 -3 0 3 -19 -10 -41 -28 -98 -77 -94
-219 8 -289 29 -20 49 -25 98 -25 53 0 68 5 100 29 67 51 89 137 56 216 -30
73 -113 117 -188 100z m62 -106 c25 -10 46 -59 36 -86 -15 -40 -46 -61 -80
-53 -37 8 -52 25 -58 69 -3 28 0 37 23 55 27 21 50 26 79 15z"/>
<path d="M3831 2898 c-70 -19 -83 -51 -85 -210 l-2 -129 50 3 51 3 2 93 c2
143 2 142 18 142 21 0 26 -31 23 -143 l-3 -97 53 0 53 0 -1 128 c-2 108 -5
133 -22 164 -27 47 -72 62 -137 46z"/>
<path d="M4131 2884 c-149 -75 -107 -316 58 -331 93 -9 162 78 128 160 -15 36
-18 37 -66 37 l-51 0 0 -39 c0 -31 4 -40 22 -44 25 -7 18 -19 -12 -24 -11 -2
-20 2 -20 8 0 5 -4 8 -9 5 -14 -9 -30 17 -36 57 -5 31 -2 41 20 63 22 22 33
26 64 21 l37 -5 -4 51 c-2 29 -5 53 -7 55 -14 14 -83 6 -124 -14z"/>
<path d="M4587 2895 c-74 -25 -87 -58 -87 -216 l0 -120 52 3 52 3 0 119 c1
119 6 135 36 116 12 -8 12 -11 -2 -27 -15 -17 -22 -45 -19 -87 1 -16 7 -18 36
-13 55 9 83 36 91 86 15 100 -65 169 -159 136z"/>
<path d="M5352 2893 c-17 -8 -39 -27 -48 -41 -21 -31 -20 -101 1 -143 20 -37
13 -61 -17 -57 -18 3 -22 -2 -23 -32 -1 -19 2 -43 7 -52 19 -38 121 -9 148 43
17 30 15 81 -4 117 -21 41 -20 63 4 69 17 4 20 14 20 54 0 32 -4 49 -12 50 -7
0 -20 2 -29 4 -9 1 -30 -4 -47 -12z"/>
<path d="M1180 2884 c-42 -18 -50 -42 -50 -158 0 -96 2 -107 24 -133 21 -24
32 -28 94 -31 l69 -4 4 28 c9 62 2 71 -46 68 -39 -3 -45 -1 -45 16 0 15 8 19
43 22 44 3 45 5 38 64 0 6 -13 9 -28 7 -16 -2 -34 1 -42 6 -23 15 -2 31 40 31
l39 0 0 48 0 47 -55 1 c-31 0 -69 -6 -85 -12z"/>
<path d="M1361 2890 c-5 -3 -9 -24 -9 -47 l-1 -43 40 0 39 0 0 -120 0 -120 50
0 c57 0 53 -13 51 153 l-2 87 41 0 41 0 -3 47 -3 48 -118 0 c-65 0 -122 -2
-126 -5z"/>
<path d="M1622 2850 c3 -44 4 -45 41 -48 l37 -3 0 -120 0 -119 50 0 50 0 0
120 0 120 39 0 c38 0 39 0 36 37 l-2 37 19 -24 c59 -73 71 -107 69 -201 l-2
-90 53 3 53 3 0 90 c0 89 1 92 43 158 23 36 42 71 42 76 0 5 -22 9 -49 8 -44
-2 -51 -5 -67 -34 -9 -18 -20 -33 -24 -33 -3 0 -13 15 -22 33 l-15 32 -177 0
-177 0 3 -45z"/>
<path d="M2323 2887 c-5 -7 -8 -82 -8 -167 l1 -155 52 -3 52 -3 0 60 c0 35 5
61 11 63 18 6 21 88 4 88 -10 0 -15 17 -17 62 l-3 62 -42 3 c-23 1 -46 -4 -50
-10z"/>
<path d="M2465 2892 c-2 -3 -4 -78 -4 -168 l-1 -164 50 0 c45 0 50 2 51 23 3
89 0 297 -5 305 -6 10 -82 12 -91 4z"/>
<path d="M3016 2890 c-1 -3 -2 -60 -1 -128 1 -82 6 -131 16 -148 16 -31 58
-54 99 -54 29 0 30 1 30 51 0 27 -4 48 -8 45 -4 -2 -14 -1 -21 4 -10 6 -13 34
-13 101 1 139 1 140 -54 137 -25 -2 -47 -5 -48 -8z"/>
<path d="M3205 2892 c-3 -3 -5 -79 -5 -169 l0 -164 52 3 52 3 -1 118 -1 117
33 0 c42 0 85 -34 85 -66 0 -32 -42 -74 -75 -74 -14 0 -25 -3 -26 -7 0 -5 -1
-28 -3 -52 l-1 -43 53 5 c91 10 150 72 154 165 2 70 -50 143 -114 159 -30 7
-197 11 -203 5z"/>
<path d="M3579 2891 c-1 -8 -1 -303 0 -318 1 -9 18 -13 50 -13 l50 0 -2 168
-2 167 -47 1 c-27 0 -48 -2 -49 -5z"/>
<path d="M4795 2890 c-8 -16 3 -258 13 -277 16 -29 62 -53 101 -53 29 0 30 1
28 50 -1 41 -4 50 -19 50 -21 0 -20 -10 -23 120 -1 58 -3 108 -4 112 -1 8 -91
6 -96 -2z"/>
<path d="M4976 2892 c-3 -3 -6 -60 -6 -126 0 -134 14 -180 60 -203 56 -28 131
-8 165 43 14 21 17 51 19 158 l1 131 -40 1 c-67 2 -66 3 -64 -118 1 -107 -6
-138 -30 -124 -7 5 -11 51 -11 125 l0 117 -44 1 c-25 1 -47 -2 -50 -5z"/>
</g>
</svg>
